<?xml version="1.0" standalone="no"?>
<!DOCTYPE svg PUBLIC "-//W3C//DTD SVG 20010904//EN"
 "http://www.w3.org/TR/2001/REC-SVG-20010904/DTD/svg10.dtd">
<svg version="1.0" xmlns="http://www.w3.org/2000/svg"
 width="480.000000pt" height="480.000000pt" viewBox="0 0 480.000000 480.000000"
 preserveAspectRatio="xMidYMid meet">
<metadata>
Created by potrace 1.11, written by Peter Selinger 2001-2013
</metadata>
<g transform="translate(0.000000,480.000000) scale(0.100000,-0.100000)"
fill="#000000" stroke="none">
<path d="M2098 4795 c-2 -2 -25 -7 -52 -9 -58 -6 -180 -40 -242 -67 -51 -23
-71 -38 -123 -89 -20 -19 -43 -35 -52 -36 -87 -6 -169 -41 -230 -98 -36 -34
-107 -114 -124 -138 -5 -9 -35 -51 -65 -94 -30 -44 -59 -87 -65 -96 -44 -73
-65 -112 -65 -119 0 -5 -4 -9 -10 -9 -5 0 -10 -4 -10 -9 0 -5 -24 -55 -54
-110 -30 -56 -53 -101 -51 -101 2 0 -9 -26 -24 -57 -16 -32 -45 -101 -65 -153
-20 -52 -41 -104 -46 -115 -4 -11 -11 -29 -13 -40 -3 -11 -15 -46 -26 -77 -12
-32 -23 -66 -24 -75 -2 -10 -13 -49 -24 -88 -12 -38 -25 -86 -29 -105 -11 -47
-11 -50 -14 -52 -1 -2 -3 -10 -5 -18 -1 -8 -8 -40 -14 -71 -6 -30 -14 -69 -17
-85 -2 -16 -7 -42 -11 -59 -3 -16 -7 -39 -8 -50 -6 -48 -16 -112 -21 -135 -2
-14 -7 -55 -10 -90 -3 -36 -8 -96 -12 -135 -8 -92 -9 -803 0 -880 21 -198 114
-282 321 -291 144 -7 480 -16 619 -18 76 -1 118 -5 118 -12 0 -25 -56 -63
-105 -69 -160 -22 -351 -90 -462 -166 -121 -83 -226 -197 -310 -334 -78 -128
-162 -394 -167 -527 0 -21 -3 -38 -6 -38 -3 0 -5 -17 -5 -37 l1 -38 1773 -3
1773 -2 -7 27 c-4 16 -8 37 -10 48 -11 66 -73 275 -102 345 -3 8 -7 17 -8 20
-10 33 -89 195 -97 198 -5 2 -8 9 -8 15 0 11 -74 127 -104 165 -153 189 -334
302 -526 327 -42 5 -63 14 -87 38 -18 17 -33 33 -33 36 0 4 42 7 93 7 84 1
158 5 422 18 50 3 117 8 149 12 33 3 80 8 105 10 179 13 215 24 240 72 20 40
38 110 47 182 8 59 13 722 6 734 -3 5 -6 55 -8 110 -2 100 -9 201 -19 280 -2
23 -7 61 -10 86 -2 25 -8 65 -12 90 -4 25 -7 57 -8 73 0 15 -2 27 -5 27 -3 0
-6 9 -7 19 -3 34 -43 216 -63 287 -11 38 -23 78 -25 89 -9 40 -67 201 -103
285 -44 104 -147 306 -163 320 -3 3 -8 12 -11 20 -9 22 -142 208 -191 264
-172 201 -379 368 -577 466 -83 41 -118 53 -200 69 -134 27 -153 30 -215 37
-27 3 -63 7 -80 10 -40 7 -421 15 -427 9z m-318 -3595 c0 -5 -2 -10 -4 -10 -3
0 -8 5 -11 10 -3 6 -1 10 4 10 6 0 11 -4 11 -10z m-23 -35 c-9 -9 -14 -10 -19
-1 -5 7 -8 7 -8 -3 0 -8 -3 -11 -6 -8 -11 10 16 36 31 31 11 -5 12 -9 2 -19z
m1333 -7 c0 -6 -6 -5 -15 2 -8 7 -15 14 -15 16 0 2 7 1 15 -2 8 -4 15 -11 15
-16z"/>
</g>
</svg>
